<svg width="367" height="463" viewBox="0 0 367 463" fill="none" xmlns="http://www.w3.org/2000/svg">
<g id="VietQR">
<rect width="366" height="463" transform="translate(0.5)" fill="white"/>
<g id="Group 38198">
<g id="Group 37756">
<path id="Vector" d="M38 446C26.9543 446 18 439.346 18 431.139V353.118V32.8611C18 24.6535 26.9543 18 38 18H221.5L232.5 27.6597H41C35.4772 27.6597 31 30.9865 31 35.0903V344.944V428.91C31 433.014 35.4772 436.34 41 436.34H130.5H329C334.523 436.34 339 433.014 339 428.91V125L352 136.889V431.139C352 439.346 343.046 446 332 446H124H38Z" fill="#1E4079"/>
<path id="Vector_2" d="M38 446C26.9543 446 18 439.346 18 431.139V353.118L31 344.944V428.91C31 433.013 35.4772 436.34 41 436.34H130.5L124 446H38Z" fill="#8DC63F"/>
<g id="Vector_3">
<path d="M232.5 27.6597L221.5 18H290.5V27.6597H232.5Z" fill="#27AAE1"/>
<path d="M352 136.889L339 125V53.2951L352 42.1493V136.889Z" fill="#27AAE1"/>
</g>
<path id="Vector_4" d="M352 32.8611C352 24.6535 343.046 18 332 18H290.5V27.6597H329C334.523 27.6597 339 30.9865 339 35.0903V53.2951L352 42.1493V32.8611Z" fill="#8DC63F"/>
</g>
</g>
<g id="qrcode">
<rect x="63.5" y="65" width="237.382" height="234" rx="4" stroke="#DFE4EA" stroke-width="4"/>
</g>
<g id="VietQR_2" clip-path="url(#clip0_2005_333)">
<path id="Vector_5" d="M168.771 45.8262C169.189 45.8264 169.59 45.9916 169.886 46.2854C170.181 46.5792 170.347 46.9775 170.347 47.3929V59.2692C170.347 59.6845 170.181 60.0827 169.885 60.3763C169.59 60.6699 169.189 60.8349 168.771 60.8349V60.8349C168.353 60.8349 167.952 60.67 167.656 60.3764C167.36 60.0828 167.194 59.6846 167.193 59.2692V47.3929C167.194 46.9774 167.36 46.5791 167.656 46.2853C167.951 45.9916 168.353 45.8264 168.771 45.8262V45.8262Z" fill="#ED1B2F"/>
<path id="Vector_6" d="M175.415 58.0037H181.911C182.283 58.0037 182.64 58.1506 182.904 58.4121C183.167 58.6736 183.315 59.0282 183.315 59.398V59.4406C183.315 59.6237 183.279 59.8049 183.208 59.974C183.137 60.1431 183.034 60.2968 182.904 60.4262C182.773 60.5556 182.618 60.6582 182.448 60.7281C182.278 60.7981 182.095 60.834 181.911 60.8339H172.55V45.8252H181.797C181.981 45.8252 182.164 45.8613 182.334 45.9314C182.504 46.0014 182.659 46.1042 182.789 46.2337C182.92 46.3631 183.023 46.5169 183.093 46.686C183.164 46.8552 183.2 47.0365 183.2 47.2195V47.2621C183.2 47.4451 183.164 47.6263 183.093 47.7953C183.023 47.9644 182.919 48.1179 182.789 48.2473C182.659 48.3767 182.504 48.4793 182.334 48.5494C182.164 48.6194 181.981 48.6554 181.797 48.6554H175.415V51.8501H181.515C181.699 51.8501 181.882 51.8861 182.052 51.9562C182.222 52.0263 182.377 52.129 182.507 52.2585C182.637 52.388 182.741 52.5417 182.811 52.7109C182.882 52.8801 182.918 53.0614 182.918 53.2444V53.2444C182.918 53.4274 182.881 53.6086 182.811 53.7776C182.74 53.9467 182.637 54.1003 182.507 54.2296C182.377 54.359 182.222 54.4616 182.052 54.5317C181.881 54.6017 181.699 54.6377 181.515 54.6377H175.415V58.0037Z" fill="#ED1B2F"/>
<path id="Vector_7" d="M194.959 47.2403C194.959 47.4264 194.922 47.6107 194.851 47.7826C194.779 47.9545 194.674 48.1106 194.541 48.242C194.408 48.3735 194.251 48.4777 194.078 48.5486C193.904 48.6195 193.719 48.6558 193.531 48.6554H190.928V59.4188C190.928 59.7941 190.778 60.154 190.511 60.4194C190.244 60.6848 189.881 60.8339 189.504 60.8339H189.198C188.82 60.8339 188.458 60.6848 188.191 60.4194C187.924 60.154 187.774 59.7941 187.774 59.4188V48.6554H185.19C184.813 48.6554 184.45 48.5063 184.183 48.2409C183.916 47.9756 183.766 47.6156 183.766 47.2403V47.2403C183.766 46.865 183.916 46.5051 184.183 46.2397C184.45 45.9743 184.813 45.8252 185.19 45.8252H193.531C193.719 45.8249 193.904 45.8613 194.077 45.9323C194.251 46.0033 194.408 46.1075 194.541 46.2389C194.673 46.3703 194.778 46.5264 194.85 46.6982C194.922 46.87 194.959 47.0543 194.959 47.2403V47.2403Z" fill="#ED1B2F"/>
<path id="Vector_8" d="M224.232 56.1951C225.351 55.6555 226.253 54.7548 226.79 53.6402C227.327 52.5257 227.467 51.2632 227.188 50.0592C226.909 48.8552 226.226 47.7808 225.253 47.0118C224.279 46.2427 223.072 45.8244 221.828 45.8252L214.223 45.8428V60.9595H217.528V48.6398H221.828C222.467 48.6391 223.086 48.8668 223.571 49.2813C224.055 49.6958 224.374 50.2696 224.468 50.898C224.563 51.5263 224.426 52.1674 224.084 52.7043C223.742 53.2412 223.217 53.6382 222.605 53.8227L221.874 52.7523H218.393L224.022 60.9543H227.505L224.232 56.1951Z" fill="#1E4382"/>
<path id="Vector_9" d="M204.673 45.5649C202.602 45.5141 200.594 46.2798 199.09 47.6945C197.585 49.1093 196.705 51.0582 196.643 53.1151C196.581 55.1721 197.341 57.1699 198.757 58.672C200.174 60.174 202.131 61.0581 204.202 61.1311C204.358 61.1405 204.515 61.1467 204.673 61.1467H207.061L205.052 58.2178H204.673C203.58 58.2188 202.518 57.8575 201.654 57.1913C200.791 56.525 200.176 55.5918 199.907 54.5393C199.638 53.4869 199.73 52.3754 200.168 51.3807C200.607 50.386 201.367 49.5651 202.328 49.0478C203.29 48.5305 204.397 48.3464 205.476 48.5246C206.554 48.7029 207.542 49.2333 208.283 50.032C209.023 50.8306 209.475 51.8518 209.565 52.9339C209.656 54.016 209.38 55.0973 208.783 56.0064L207.186 53.6797H204.341L207.042 57.6177L209.086 60.6058L209.328 60.9598H212.174L210.523 58.5407C211.533 57.4197 212.194 56.0322 212.426 54.546C212.659 53.0599 212.453 51.5386 211.834 50.166C211.215 48.7934 210.209 47.6282 208.938 46.8114C207.666 45.9945 206.183 45.5608 204.669 45.5628L204.673 45.5649Z" fill="#1E4382"/>
<path id="Vector_10" d="M151.71 60.9963C151.577 60.9901 151.443 60.9776 151.312 60.96C151.444 60.9776 151.577 60.9901 151.71 60.9963Z" stroke="#231F20" stroke-width="0.198529"/>
<path id="Vector_11" d="M152.55 60.958H152.526H152.55Z" stroke="#231F20" stroke-width="0.198529"/>
<path id="Vector_12" d="M152.128 60.9961C152.058 60.9961 151.989 60.9961 151.919 60.9961C151.989 60.9971 152.059 60.9992 152.128 60.9961Z" stroke="#231F20" stroke-width="0.198529"/>
<path id="Vector_13" d="M151.314 60.96H151.292H151.314Z" stroke="#231F20" stroke-width="0.198529"/>
<path id="Vector_14" d="M151.919 60.998C151.849 60.998 151.78 60.998 151.71 60.998C151.78 61.0001 151.849 60.998 151.919 60.998Z" stroke="#231F20" stroke-width="0.198529"/>
<path id="Vector_15" d="M152.526 60.96C152.394 60.9776 152.262 60.9901 152.128 60.9963C152.261 60.9901 152.393 60.9776 152.526 60.96Z" stroke="#231F20" stroke-width="0.198529"/>
<g id="Group 37759">
<path id="Vector_16" d="M164.149 36.6765C163.111 36.0429 161.863 35.8446 160.678 36.1251C159.493 36.4057 158.469 37.1422 157.831 38.1726L152.575 46.6602L152.134 47.3672C152.055 47.471 151.973 47.5748 151.885 47.6714C151.408 48.2009 150.813 48.6124 150.148 48.8732C149.483 49.134 148.765 49.2367 148.053 49.1733C147.341 49.1098 146.653 48.882 146.045 48.5078C145.437 48.1337 144.926 47.6236 144.551 47.0183L141.425 41.9736C141.079 41.4131 140.859 40.7847 140.781 40.1317C140.757 39.9319 140.746 39.7308 140.748 39.5296C140.778 38.9519 140.985 38.397 141.341 37.9396C141.698 37.4822 142.187 37.1443 142.742 36.9713C143.298 36.7984 143.894 36.7987 144.449 36.9723C145.005 37.1458 145.494 37.4843 145.85 37.9421C145.18 36.9321 144.134 36.2276 142.942 35.9835C141.749 35.7394 140.508 35.9758 139.491 36.6407C138.474 37.3055 137.765 38.3444 137.519 39.5287C137.274 40.713 137.512 41.9457 138.181 42.9557L147.869 58.5978C148.21 59.2324 148.699 59.7774 149.293 60.1877C149.888 60.598 150.573 60.8619 151.291 60.9577H151.311C151.442 60.9753 151.576 60.9878 151.709 60.994C151.779 60.994 151.848 60.994 151.918 60.994C151.988 60.994 152.057 60.994 152.127 60.994C152.261 60.9878 152.394 60.9753 152.525 60.9577H152.546C153.264 60.8616 153.949 60.5976 154.543 60.1873C155.138 59.777 155.626 59.2322 155.968 58.5978L165.655 42.9557C165.972 42.4454 166.184 41.878 166.28 41.286C166.376 40.694 166.353 40.0891 166.213 39.5058C166.073 38.9226 165.819 38.3725 165.465 37.887C165.11 37.4015 164.663 36.9902 164.149 36.6765V36.6765Z" fill="#ED1B2F"/>
<path id="Vector_17" d="M148.02 41.4243L146.005 38.1725C145.957 38.0936 145.901 38.021 145.85 37.9462C145.494 37.4886 145.006 37.1502 144.45 36.9765C143.895 36.8028 143.3 36.8021 142.744 36.9745C142.189 37.147 141.699 37.4843 141.343 37.941C140.986 38.3978 140.778 38.9522 140.748 39.5295C140.746 39.7293 140.757 39.9291 140.781 40.1275C140.859 40.7805 141.078 41.4089 141.425 41.9694L144.554 47.0141C144.929 47.6194 145.44 48.1295 146.048 48.5036C146.656 48.8778 147.344 49.1056 148.056 49.1691C148.768 49.2325 149.486 49.1297 150.151 48.869C150.816 48.6082 151.411 48.1967 151.888 47.6672L148.02 41.4243Z" fill="#A01E21"/>
</g>
</g>
</g>
<defs>
<clipPath id="clip0_2005_333">
<rect width="90" height="25.1471" fill="white" transform="translate(137.5 36)"/>
</clipPath>
</defs>
</svg>
