<svg width="41" height="35" viewBox="0 0 41 35" fill="none" xmlns="http://www.w3.org/2000/svg">
<path d="M37.1014 1.07768C35.6802 0.209889 33.9702 -0.0617475 32.3474 0.322515C30.7247 0.706778 29.322 1.71547 28.448 3.12675L21.2492 14.7514L20.6465 15.7198C20.5376 15.862 20.426 16.0042 20.3043 16.1364C19.6514 16.8616 18.8368 17.4253 17.9257 17.7824C17.0146 18.1396 16.032 18.2803 15.0564 18.1934C14.0808 18.1065 13.1391 17.7944 12.3065 17.282C11.4738 16.7696 10.7733 16.071 10.2607 15.242L5.97835 8.33261C5.5042 7.56497 5.2033 6.70432 5.0964 5.81002C5.06353 5.53636 5.04871 5.26086 5.05202 4.98528C5.09218 4.19405 5.37548 3.43405 5.86377 2.8076C6.35205 2.18115 7.02188 1.71834 7.78305 1.48147C8.54423 1.24461 9.3602 1.24506 10.1211 1.48279C10.882 1.72051 11.5513 2.18408 12.0389 2.81107C11.122 1.42775 9.68947 0.46282 8.05631 0.128546C6.42314 -0.205728 4.72317 0.11804 3.33036 1.02862C1.93755 1.93921 0.965995 3.36202 0.629428 4.98406C0.29286 6.60609 0.61885 8.29448 1.53568 9.6778L14.805 31.1013C15.2721 31.9705 15.9406 32.7169 16.7554 33.2789C17.5702 33.8409 18.5079 34.2024 19.491 34.3335H19.5182C19.6986 34.3576 19.8819 34.3747 20.0637 34.3832C20.1597 34.3832 20.2542 34.3832 20.3501 34.3832C20.446 34.3832 20.5405 34.3832 20.6364 34.3832C20.8197 34.3747 21.0015 34.3576 21.1819 34.3335H21.2106C22.1936 34.2019 23.1311 33.8403 23.9458 33.2783C24.7605 32.7164 25.4292 31.9702 25.8966 31.1013L39.1645 9.6778C39.5984 8.97879 39.8892 8.20166 40.0204 7.39088C40.1515 6.5801 40.1204 5.75159 39.9288 4.95278C39.7371 4.15396 39.3888 3.40053 38.9036 2.73559C38.4184 2.07065 37.806 1.50727 37.1014 1.07768Z" fill="#ED1B2F"/>
<path d="M15.0103 7.57924L12.2514 3.12561C12.1855 3.01754 12.1082 2.918 12.038 2.81562C11.5508 2.18889 10.882 1.7254 10.1216 1.48748C9.36119 1.24956 8.54567 1.24862 7.78472 1.4848C7.02376 1.72098 6.35389 2.18294 5.86519 2.80854C5.37649 3.43414 5.09242 4.19338 5.05117 4.98413C5.04811 5.25782 5.06294 5.53141 5.09556 5.80319C5.20245 6.69749 5.50335 7.55813 5.97751 8.32578L10.2641 15.2352C10.7767 16.0642 11.4773 16.7627 12.3099 17.2752C13.1425 17.7876 14.0842 18.0997 15.0598 18.1866C16.0355 18.2735 17.018 18.1327 17.9292 17.7756C18.8403 17.4185 19.6548 16.8548 20.3077 16.1296L15.0103 7.57924Z" fill="#A01E21"/>
</svg>
