<svg width="2583" height="3719" viewBox="0 0 2583 3719" fill="none" xmlns="http://www.w3.org/2000/svg">
  <g id="Vietin.NH">
    <g clip-path="url(#clip0_1_155)">
      <rect width="2583" height="3719" rx="280" fill="white"/>
      <g id="Component 1" clip-path="url(#clip1_1_155)">
        <rect width="2583" height="3719" fill="#7DD2F7"/>
        <path id="Ellipse 88 (Stroke)" fill-rule="evenodd" clip-rule="evenodd" d="M151.5 654.58C391.236 654.58 585.58 460.236 585.58 220.5C585.58 -19.2356 391.236 -213.58 151.5 -213.58C-88.2356 -213.58 -282.58 -19.2356 -282.58 220.5C-282.58 460.236 -88.2356 654.58 151.5 654.58ZM151.5 800C471.549 800 731 540.549 731 220.5C731 -99.549 471.549 -359 151.5 -359C-168.549 -359 -428 -99.549 -428 220.5C-428 540.549 -168.549 800 151.5 800Z" fill="#82D9FF"/>
        <ellipse id="Ellipse 96" cx="2401.5" cy="219" rx="1734.5" ry="647" fill="#025990" fill-opacity="0.15"/>
        <ellipse id="Ellipse 97" cx="1291.5" cy="2934" rx="1921.5" ry="1198" fill="#025990" fill-opacity="0.2"/>
        <g id="Group 271">
          <circle id="Ellipse 68" cx="305.266" cy="1581.24" r="114.5" transform="rotate(-152.99 305.266 1581.24)" fill="#82D9FF" stroke="#82D9FF"/>
          <circle id="Ellipse 69" cx="271.023" cy="1498.68" r="112.5" transform="rotate(-152.99 271.023 1498.68)" stroke="#82D9FF" stroke-width="5"/>
        </g>
        <g id="Ellipse 87" filter="url(#filter0_f_1_155)">
          <ellipse cx="1291.5" cy="2665" rx="1685.5" ry="697" fill="#005993" fill-opacity="0.3"/>
        </g>
        <g id="Frame 1215">
          <g id="Frame 1217" clip-path="url(#clip2_1_155)">
            <g id="Group 229">
              <g id="Group 223">
                <path id="Vector 134" d="M149.503 2057C377.172 2661 1323.27 3246.54 2585.9 3656.9L2270.8 4516.5L-394 3539.65L149.503 2057Z" fill="url(#paint0_linear_1_155)" fill-opacity="0.3"/>
                <path id="Vector 133" d="M-13.8052 2241.01C316.949 2741.79 1348.05 3145.41 2657.92 3360.62L2502.68 4145.44L-281.575 3594.69L-13.8052 2241.01Z" fill="url(#paint1_linear_1_155)" fill-opacity="0.4"/>
                <path id="Vector 132" d="M0.0710449 2508.61C383.906 2882.82 1376.01 3054.44 2583.77 3016.71V3717.71H0.0710449V2508.61Z" fill="url(#paint2_linear_1_155)" fill-opacity="0.6"/>
              </g>
              <g id="Group 222">
                <path id="Vector 134_2" d="M2433.5 2057.81C2205.83 2661.82 1259.73 3247.36 -2.90565 3657.72L312.2 4517.32L2977 3540.47L2433.5 2057.81Z" fill="url(#paint3_linear_1_155)" fill-opacity="0.3"/>
                <path id="Vector 133_2" d="M2596.8 2241.82C2266.05 2742.61 1234.94 3146.23 -74.9217 3361.43L80.3229 4146.25L2864.57 3595.5L2596.8 2241.82Z" fill="url(#paint4_linear_1_155)" fill-opacity="0.4"/>
                <path id="Vector 132_2" d="M2583.34 2509.84C2199.51 2884.05 1207.41 3055.67 -0.353516 3017.94V3718.94H2583.34V2509.84Z" fill="url(#paint5_linear_1_155)" fill-opacity="0.6"/>
              </g>
            </g>
            <g id="Rectangle 416" filter="url(#filter1_f_1_155)">
              <rect x="-630" y="2665.5" width="3843" height="1481" fill="#ABE1FA"/>
            </g>
          </g>
        </g>
        <g id="Group 270">
          <circle id="Ellipse 68_2" cx="2516" cy="1109" r="114.5" fill="#82D9FF" fill-opacity="0.2" stroke="#82D9FF"/>
          <circle id="Ellipse 69_2" cx="2584" cy="1167" r="112.5" stroke="#82D9FF" stroke-width="5"/>
        </g>
        <g id="Frame 332">
          <g id="Group 331">
            <path id="Vector" d="M2197.22 154.004H2214.47L2223.76 155.33L2233.94 157.983L2242.79 161.521L2252.97 166.828L2260.49 172.134L2266.68 177.441L2272.88 183.632L2277.74 189.823L2282.17 196.456L2286.59 204.416L2290.13 213.261L2292.79 222.547L2294.12 229.18L2295 238.467V246.869L2294.12 255.713L2291.9 266.327L2288.81 275.613L2286.59 280.478L2277.74 276.498L2267.57 272.075L2252.97 267.211L2240.13 264.116L2232.61 262.789L2231.73 262.347V216.798H2179.96V262.347L2165.8 265.442L2154.3 268.538L2141.91 272.96L2133.06 276.94L2125.54 280.478L2123.33 276.055L2119.79 265.442L2118.02 257.04L2117.13 249.522V235.371L2118.9 223.432L2121.56 214.145L2124.21 207.07L2128.63 198.225L2134.83 188.939L2139.7 183.19L2144.12 178.325L2147.66 175.23L2154.3 169.923L2163.59 164.175L2172 160.195L2182.62 156.657L2193.23 154.446L2197.22 154.004Z" fill="white"/>
            <path id="Vector_2" d="M1785.73 263.67H1834.4L1841.48 264.996L1848.11 267.65L1852.98 270.745L1857.85 275.609L1861.39 281.8L1862.71 287.549V297.72L1860.94 303.469L1858.29 307.891L1854.31 311.871L1851.21 314.082L1852.1 314.967L1857.41 317.62L1861.83 321.158L1864.93 325.58L1867.14 330.444L1868.47 337.962V343.711L1867.58 349.017L1865.37 355.208L1861.83 360.515L1856.96 365.379L1851.21 368.917L1844.57 371.571L1838.82 372.897L1835.28 373.339H1785.73V263.67ZM1811.39 284.012V306.565H1830.42L1834.4 304.796L1837.94 301.7L1839.71 297.72V292.856L1837.94 288.876L1835.72 286.665L1832.19 284.454L1830.42 284.012H1811.39ZM1811.39 326.907V352.997H1834.84L1839.26 351.229L1841.48 349.46L1844.13 345.48L1845.02 342.384V337.52L1843.25 333.098L1840.15 329.56L1835.72 327.349L1833.07 326.907H1811.39Z" fill="white"/>
            <path id="Vector_3" d="M2199.43 272.519H2212.26L2227.3 273.846L2240.13 276.057L2253.41 279.595L2263.58 283.132L2273.76 287.555L2280.4 291.092L2277.3 295.957L2271.99 302.148L2264.47 309.665L2256.95 315.414L2249.87 319.836L2242.79 323.374L2236.59 326.027L2227.74 328.681L2218.9 330.45L2209.6 331.334H2201.64L2190.14 330.007L2179.07 327.354L2169.78 323.816L2159.61 318.51L2152.53 313.645L2147.66 309.665L2141.02 303.474L2135.71 297.283L2131.73 291.534V290.65L2143.68 284.901L2155.62 280.479L2166.24 277.384L2175.98 275.172L2187.92 273.404L2199.43 272.519Z" fill="white"/>
            <path id="Vector_4" d="M1406.1 263.23H1430.87L1433.97 263.672L1435.74 267.21L1442.38 284.457L1449.9 303.472L1459.63 328.236L1461.4 332.216L1470.25 309.663L1479.99 284.899L1488.39 263.672L1488.84 263.23H1511.4L1511.84 264.115L1504.32 283.13L1494.59 307.894L1487.95 324.698L1479.1 347.251L1473.35 361.844L1471.14 365.824L1468.04 369.362L1463.62 372.015L1459.63 373.342H1449.01L1444.15 361.402L1436.18 341.06L1426.45 316.296L1407.87 268.979L1406.1 264.557V263.23Z" fill="white"/>
            <path id="Vector_5" d="M1909.17 294.629H1913.6L1919.79 295.513L1925.55 297.724L1929.97 300.82L1933.51 304.8L1933.95 297.282H1956.52V373.343H1933.95L1933.51 365.825L1930.85 369.363L1926.87 372.459L1922.01 374.67L1915.37 375.996H1906.96L1900.33 374.67L1894.57 372.459L1890.15 369.805L1885.28 365.825L1880.86 360.519L1876.87 353.001L1874.66 345.483L1873.78 337.966V332.659L1874.66 325.584L1876.87 318.066L1880.41 311.433L1883.95 307.011L1886.17 304.357L1891.92 299.935L1898.11 296.84L1905.19 295.071L1909.17 294.629ZM1911.39 316.297L1906.52 318.066L1902.54 321.162L1899 326.026L1897.23 331.333V339.735L1899 344.599L1901.65 348.579L1905.63 352.117L1909.17 353.886L1913.16 354.77H1917.14L1922.45 353.443L1926.87 350.79L1930.41 346.81L1932.62 342.388L1933.51 338.408V332.217L1932.18 327.353L1929.97 323.373L1927.32 320.277L1922.89 317.624L1918.91 316.297H1911.39Z" fill="white"/>
            <path id="Vector_6" d="M2049.43 263.23H2056.07L2060.49 264.557L2064.48 266.768L2068.46 270.306L2071.56 275.612L2072.88 281.803V323.372L2079.08 317.181L2082.17 313.643L2086.16 309.221L2091.02 303.914L2094.12 300.376L2096.78 297.281H2125.54L2122.88 300.819L2114.47 309.221L2111.38 312.758L2106.07 318.065L2102.97 321.603L2096.78 327.794L2094.12 330.889L2095.01 332.658L2101.2 341.06L2107.4 349.02L2114.03 357.865L2120.23 365.824L2125.54 372.9V373.342H2095.45L2091.91 368.478L2073.33 340.618L2072.88 372.9L2072.44 373.342H2049.43L2048.99 368.478V274.728L2049.43 263.23Z" fill="white"/>
            <path id="Vector_7" d="M1566.71 295.068H1577.33L1584.85 296.837L1590.16 299.048L1596.8 303.47L1602.99 309.661L1606.97 315.852L1610.07 322.928L1611.4 328.676L1611.84 336.636L1611.4 341.943L1610.96 342.385H1553.88L1555.21 347.692L1556.98 351.23L1559.19 353.883L1563.17 356.536L1567.59 358.305H1575.56L1580.43 356.536L1584.41 353.441L1587.5 349.461H1608.74L1608.3 352.114L1605.2 357.863L1601.66 362.285L1598.57 365.823L1593.26 369.803L1586.62 373.34L1578.21 375.551L1570.69 375.994L1563.17 375.109L1556.09 372.898L1550.34 369.803L1545.91 366.265L1542.82 363.612L1539.28 359.189L1535.74 352.998L1533.52 347.25L1532.2 340.616V330.003L1533.97 322.043L1536.18 316.737L1539.28 311.872L1542.82 307.45L1545.91 304.355L1550.78 300.817L1557.86 297.279L1564.05 295.51L1566.71 295.068ZM1568.92 312.314L1563.61 314.083L1559.19 317.179L1556.09 321.159L1554.32 325.139V326.908L1568.04 327.35H1586.18L1589.27 326.908L1588.39 322.928L1585.29 318.063L1580.87 314.526L1576.44 312.757L1574.67 312.314H1568.92Z" fill="white"/>
            <path id="Vector_8" d="M2006.07 295.068H2015.36L2020.67 296.395L2026.43 299.49L2030.85 303.47L2034.39 307.892L2036.6 312.757L2037.93 317.621L2038.37 322.485V373.34H2015.36L2014.92 326.023L2013.59 321.601L2010.05 317.621L2006.07 315.852H1999.88L1995.9 317.621L1993.68 319.39L1991.03 324.697L1990.59 373.34H1967.58V297.721H1988.82V305.239H1989.7L1990.59 303.47L1995.01 299.49L2001.21 296.395L2006.07 295.068Z" fill="white"/>
            <path id="Vector_9" d="M1742.37 295.068H1751.66L1757.85 296.837L1762.72 299.49L1768.03 304.355L1771.13 309.219L1773.34 314.526L1774.22 318.505V373.34H1751.21L1750.77 324.254L1748.56 319.832L1745.46 317.179L1742.37 315.852H1736.17L1731.75 317.621L1728.65 321.159L1727.32 324.254L1726.88 327.35L1726.44 373.34H1703.87V297.721H1725.11L1725.55 304.797L1729.98 300.375L1736.17 296.837L1740.15 295.51L1742.37 295.068Z" fill="white"/>
            <path id="Vector_10" d="M1626.44 278.267H1645.47L1649.01 278.709V297.283H1660.95V315.413H1649.01L1649.45 345.484L1651.66 349.906L1655.64 352.56L1660.95 353.444V373.344H1648.12L1642.37 371.575L1637.95 369.364L1633.52 365.384L1630.87 362.288L1627.33 355.213L1626.44 351.675V315.413H1615.38L1614.94 314.971V297.725L1615.38 297.283H1626.44V278.267Z" fill="white"/>
            <path id="Vector_11" d="M1518.92 297.283H1523.79V373.344H1501.22V314.087L1502.99 308.338L1506.09 303.916L1510.07 300.378L1514.94 298.167L1518.92 297.283Z" fill="white"/>
            <path id="Vector_12" d="M1687.5 297.283H1692.37V373.344H1669.8V316.74L1670.69 311.434L1673.79 305.243L1677.77 301.263L1681.31 299.052L1685.29 297.725L1687.5 297.283Z" fill="white"/>
          </g>
        </g>
      </g>
      <g id="Frame 1227">
        <g clip-path="url(#clip3_1_155)">
          <rect x="288" y="529.5" width="2008" height="2388" rx="100" fill="white"/>
          <g id="Frame 1237">
            <g id="Frame 1236">
              <g id="Group 240">
                <g id="Group 236">
                  <path id="Vector_13" d="M1069.53 2611.29H1078.95L1085.09 2612.37L1090.01 2614.18L1094.51 2616.71L1097.79 2619.97L1100.66 2625.03L1101.48 2629.01V2633.35L1100.25 2638.78L1097.79 2644.21L1094.1 2650L1090.83 2653.98L1086.32 2658.68L1078.95 2665.19L1074.44 2668.45L1069.12 2672.43L1061.34 2677.49L1059.7 2678.94H1090.83L1090.42 2682.56L1087.14 2695.94L1086.73 2697.03H1019.56L1019.97 2693.77L1023.24 2680.39L1025.29 2678.94L1037.17 2672.79L1042.09 2669.89L1049.05 2665.55L1055.6 2660.85L1060.93 2656.51L1067.07 2651.08L1071.17 2646.38L1074.03 2642.04L1075.67 2637.33V2634.08L1074.44 2631.91L1071.99 2630.82L1068.3 2630.46L1063.38 2631.55L1060.52 2633.35L1057.65 2637.33L1055.6 2641.68L1054.78 2643.48H1031.44L1032.26 2639.87L1034.71 2633.72L1038.4 2627.57L1041.68 2623.95L1044.54 2621.05L1049.87 2617.44L1055.6 2614.54L1062.57 2612.37L1069.53 2611.29Z" fill="#1597D4"/>
                  <path id="Vector_14" d="M828.687 2631.91H836.059L844.251 2632.99L849.986 2634.8L854.491 2636.97L858.587 2640.23L861.045 2642.76L864.321 2648.19L865.96 2653.98L866.369 2657.59V2663.02L865.55 2669.53L863.912 2675.68L861.864 2680.39L859.406 2684.37L856.13 2687.98L852.853 2690.88L847.118 2694.13L841.794 2695.94L836.469 2697.03L828.687 2697.75L820.904 2697.39L813.122 2695.94L807.797 2722.35L807.388 2722.71H786.498L786.089 2721.99L793.871 2682.92L802.473 2639.5L803.292 2637.7L805.34 2636.61L813.941 2634.08L824.181 2632.27L828.687 2631.91ZM829.506 2648.55L822.952 2650L821.724 2650.72L818.447 2666.28L815.989 2678.58V2680.75L822.133 2682.19H830.325L834.831 2680.75L838.107 2678.58L840.975 2675.68L843.023 2671.7L844.661 2666.28L845.48 2661.21V2658.32L843.842 2653.61L840.975 2650.72L837.698 2649.27L834.011 2648.55H829.506Z" fill="#19417E"/>
                  <path id="Vector_15" d="M1153.9 2612.73H1176.43L1176.02 2616.35L1168.65 2647.1L1164.55 2664.11L1164.14 2665.19H1174.79L1170.7 2682.19L1160.05 2682.56L1156.77 2695.94L1156.36 2697.03H1133.02L1133.43 2694.13L1136.29 2682.19H1094.51L1096.56 2672.79L1098.2 2666.28L1101.07 2663.74L1103.93 2660.85L1105.16 2659.4H1105.98L1106.8 2657.96L1113.36 2651.81L1117.45 2647.83L1120.32 2644.93L1126.87 2638.78L1129.74 2635.89L1135.88 2630.1L1138.75 2627.2L1143.67 2622.5L1152.68 2613.82L1153.9 2612.73ZM1147.35 2639.87L1143.67 2643.85L1134.65 2653.25L1130.97 2657.23L1125.64 2662.66L1124 2664.47V2665.19H1142.03L1144.48 2655.78L1148.17 2640.59V2639.87H1147.35Z" fill="#1597D4"/>
                  <path id="Vector_16" d="M690.653 2631.91H698.845L707.447 2632.99L713.181 2634.8L717.686 2637.7L720.554 2641.31L722.192 2645.29L722.602 2647.46V2655.42L719.325 2673.15L714.819 2695.94L714.41 2696.67H693.111L695.568 2683.64L700.483 2658.68V2654.34L698.845 2651.44L696.797 2650L692.292 2648.91H686.967L680.004 2650L678.365 2650.72L673.45 2675.32L669.354 2696.3L668.945 2696.67H647.646L650.103 2683.64L659.114 2638.42L660.343 2637.33L670.173 2634.8L680.413 2632.99L690.653 2631.91Z" fill="#19417E"/>
                  <path id="Vector_17" d="M756.598 2631.91H764.38L773.391 2632.99L779.945 2634.8L784.86 2637.33L788.137 2640.59L790.185 2644.93L790.594 2647.1V2653.25L788.956 2663.02L782.812 2693.77L782.402 2695.22L772.572 2697.03L762.332 2698.11H750.864L743.9 2697.03L737.757 2695.22L732.841 2692.69L729.565 2690.15L726.697 2686.17L725.469 2682.92L725.059 2680.75V2676.04L726.697 2670.26L729.565 2666.28L732.432 2663.74L738.166 2660.85L743.9 2659.04L750.044 2657.96L754.55 2657.59L768.476 2657.23L768.886 2655.78V2652.17L767.247 2650L763.971 2648.55L758.646 2647.83H751.273L742.262 2648.91L732.432 2650.72L733.251 2644.93L734.889 2636.25L736.937 2635.16L747.177 2632.99L756.598 2631.91ZM764.38 2668.09L756.188 2668.45L752.502 2669.17L749.225 2670.98L746.768 2673.51L745.948 2676.41L746.358 2679.66L748.406 2682.56L750.864 2684.37L753.731 2685.09H760.694L763.151 2684.37L763.971 2682.56L766.838 2669.17L766.428 2668.09H764.38Z" fill="#19417E"/>
                  <path id="Vector_18" d="M901.185 2631.91H908.558L915.521 2632.63L922.074 2634.08L928.628 2636.97L931.905 2639.87L933.953 2643.48L934.772 2646.02V2655.06L931.495 2672.06L926.989 2694.86L923.303 2695.94L914.292 2697.39L906.919 2698.11H895.451L888.078 2697.03L881.115 2694.86L876.609 2692.32L873.332 2689.43L870.875 2685.81L869.646 2681.83V2674.6L871.284 2669.89L873.742 2666.64L877.428 2663.38L883.163 2660.49L890.126 2658.68L898.727 2657.59H913.063L913.473 2653.25L912.244 2650.36L909.377 2648.91L906.51 2648.19L903.233 2647.83H895.86L886.44 2648.91L877.019 2650.72L876.609 2650L879.067 2636.97L879.886 2635.53L889.716 2633.35L897.089 2632.27L901.185 2631.91ZM910.196 2668.09L900.366 2668.45L895.041 2669.89L891.764 2672.43L890.535 2675.32V2678.94L892.174 2682.19L895.451 2684.37L897.908 2685.09H905.281L907.738 2684.37L909.786 2675.68L911.015 2669.53L910.606 2668.09H910.196Z" fill="#19417E"/>
                  <path id="Vector_19" d="M1192.82 2612.73H1254.67L1254.26 2615.63L1250.98 2629.01L1247.7 2634.08L1242.79 2640.59L1237.46 2647.83L1232.96 2653.98L1222.31 2668.45L1217.8 2674.6L1207.15 2689.07L1201.42 2696.67L1201.01 2697.03H1174.38L1175.2 2695.22L1183.81 2684L1188.31 2678.22L1195.27 2669.17L1199.78 2663.38L1212.89 2646.38L1218.21 2639.5L1224.36 2631.55L1188.31 2631.18L1188.72 2627.93L1192 2614.54L1192.82 2612.73Z" fill="#A8CB42"/>
                  <path id="Vector_20" d="M968.768 2631.91H975.731L983.923 2632.99L990.477 2635.16L994.572 2637.33L995.392 2638.06L994.982 2641.68L992.525 2653.61H991.296L987.609 2651.08L981.875 2648.55L975.322 2647.1H968.768L965.491 2648.19L964.262 2649.27L963.853 2650.36V2652.89L964.672 2654.7L966.72 2655.42L978.598 2659.04L985.561 2662.3L989.657 2665.55L992.115 2669.17L993.344 2673.15V2679.66L991.705 2685.09L989.248 2689.07L986.381 2691.96L982.285 2694.5L977.779 2696.3L971.226 2697.75L968.358 2698.11H957.709L950.746 2697.03L944.192 2695.22L938.048 2692.32L936.41 2691.24L936.82 2686.9L939.277 2674.96L940.916 2675.68L948.288 2679.66L954.842 2682.19L962.624 2683.28L967.949 2682.56L970.406 2681.11L971.635 2679.3L971.226 2676.04L969.587 2674.6L965.901 2673.15L957.709 2670.98L952.794 2669.17L948.288 2666.64L945.012 2663.38L942.964 2659.4L942.144 2655.78V2651.08L943.373 2646.02L945.831 2641.68L949.517 2638.06L953.613 2635.53L958.119 2633.72L965.082 2632.27L968.768 2631.91Z" fill="#19417E"/>
                  <path id="Vector_21" d="M1153.9 2612.73H1176.43L1176.02 2616.35L1168.65 2647.1L1164.55 2664.11L1164.14 2665.19H1174.79L1170.7 2682.19L1169.47 2681.83L1163.74 2672.06L1160.05 2666.28L1156.77 2660.49L1149.81 2648.91L1146.94 2644.57L1147.76 2640.59L1148.17 2639.87H1147.35L1146.53 2641.31L1144.89 2640.59L1139.16 2631.18L1137.52 2628.29L1144.07 2622.14L1147.76 2618.52L1152.68 2613.82L1153.9 2612.73Z" fill="#A8CB42"/>
                </g>
              </g>
              <path id="Vector 137" d="M1382.65 2602V2732" stroke="#025990" stroke-width="5"/>
              <g id="Group 240_2">
                <g id="Group 238">
                  <path id="Vector_22" d="M1531.85 2609.22H1536.54L1540.76 2610.09L1544.04 2611.38L1546.86 2613.11L1549.91 2615.7L1551.32 2617.43L1559.29 2629.96L1562.58 2635.14L1578.53 2660.2L1579.47 2659.12L1582.75 2653.93L1586.74 2647.67L1590.03 2642.48L1601.99 2623.69L1605.75 2617.86L1608.09 2615.05L1610.44 2613.11L1613.49 2611.38L1617.01 2610.09L1620.99 2609.44H1624.28L1628.03 2610.09L1631.08 2611.17L1634.6 2612.89L1637.89 2614.84L1640.7 2617.21L1642.34 2618.94L1644.22 2621.75L1645.63 2625.21L1646.33 2629.09V2631.47L1645.86 2634.49L1644.69 2637.95L1642.34 2642.05L1639.06 2647.24L1635.54 2653.07L1632.26 2658.25L1628.74 2664.08L1625.45 2669.27L1621.93 2675.1L1618.65 2680.28L1615.13 2686.12L1611.84 2691.3L1608.33 2697.13L1601.76 2707.71L1598.71 2712.68L1596.6 2715.92L1594.95 2717.87L1593.31 2719.59L1590.26 2721.75L1586.51 2723.48L1583.22 2724.35L1579.94 2724.78H1577.36L1574.07 2724.35L1570.32 2723.27L1567.27 2721.75L1564.22 2719.59L1562.58 2718.08L1560.23 2715.06L1556.71 2709.44L1552.96 2703.39L1545.92 2692.16L1542.17 2686.12L1538.88 2680.93L1535.13 2674.88L1531.61 2669.27L1527.86 2663.22L1520.82 2651.99L1517.07 2645.94L1513.78 2640.76L1511.9 2637.3L1510.97 2634.49L1510.5 2632.12V2628.01L1511.2 2624.77L1512.61 2621.32L1514.72 2618.29L1516.83 2616.13L1519.18 2614.19L1522.7 2612.25L1526.45 2610.52L1529.27 2609.65L1531.85 2609.22Z" fill="#EF2532"/>
                  <path id="Vector_23" d="M1823.69 2652.2L1828.15 2652.42L1833.31 2653.28L1838.94 2654.8L1843.16 2656.52L1847.62 2658.68L1850.67 2660.63L1853.02 2662.36L1856.07 2664.95L1858.65 2667.97L1860.76 2671L1862.63 2674.67L1863.81 2677.91L1864.75 2682.23L1864.98 2684.17V2691.08L1864.28 2695.62L1862.87 2700.15L1860.76 2704.69L1858.41 2708.15L1856.3 2710.52L1853.95 2712.68L1855.36 2715.06L1858.88 2720.46L1859.35 2721.54H1843.16L1835.66 2709.44L1832.37 2704.26L1829.09 2698.86L1826.74 2695.19L1823.22 2689.57V2689.14H1838.94L1841.29 2692.6L1844.34 2697.35V2697.78L1845.27 2696.91L1846.45 2694.32L1847.15 2691.95L1847.62 2687.84L1847.39 2684.82L1846.45 2681.15L1844.57 2677.04L1842.22 2673.59L1839.41 2670.78L1836.83 2669.05L1833.31 2667.32L1830.26 2666.46L1827.21 2666.03H1822.05L1818.06 2666.68L1815.25 2667.54L1811.96 2669.05L1808.68 2671.43L1806.56 2673.59L1804.22 2677.04L1802.58 2680.93L1801.87 2683.74L1801.64 2685.47V2690.22L1802.34 2694.11L1803.51 2697.35L1804.92 2699.94L1807.27 2702.75L1810.32 2705.12L1814.07 2707.07L1819 2708.58L1823.22 2709.23L1825.8 2709.44L1828.15 2713.11L1831.43 2718.51L1833.54 2721.97L1832.84 2722.4L1826.74 2722.83H1819.94L1815.01 2722.19L1809.85 2720.89L1805.16 2719.16L1800.23 2716.79L1796.48 2714.19L1794.13 2712.25L1792.02 2710.31L1789.44 2707.07L1787.33 2703.61L1785.45 2699.29L1784.28 2694.54L1783.81 2691.08V2683.96L1784.51 2679.64L1785.69 2675.53L1787.8 2671L1790.14 2667.54L1792.72 2664.73L1795.54 2662.14L1798.59 2659.98L1802.34 2657.82L1806.1 2656.09L1810.32 2654.58L1815.25 2653.28L1818.76 2652.64L1823.69 2652.2Z" fill="#1F437E"/>
                  <path id="Vector_24" d="M1872.96 2653.5H1908.38L1913.07 2653.93L1917.77 2655.01L1921.29 2656.31L1924.57 2657.82L1927.15 2659.55L1929.5 2661.28L1931.14 2663L1933.25 2665.6L1935.13 2669.05L1936.3 2672.29L1936.77 2674.67L1937 2677.26V2679.64L1936.53 2683.52L1935.6 2686.98L1933.72 2690.87L1931.37 2693.89L1929.26 2696.05L1926.21 2698.21L1922.93 2699.94L1921.75 2700.15L1937 2719.59L1938.41 2721.32V2721.75H1919.64L1917.53 2719.16L1914.01 2714.41L1906.27 2704.04L1902.52 2699.07L1899 2694.32L1895.24 2689.36L1891.73 2684.6V2684.39H1910.26L1913.07 2688.28V2688.71L1915.42 2687.2L1917.06 2685.68L1918.94 2682.23L1919.41 2680.07V2677.04L1918.7 2674.45L1917.3 2671.86L1915.89 2670.35L1912.84 2668.4L1910.02 2667.32L1906.27 2666.68L1889.85 2666.46V2721.54H1872.72V2653.72L1872.96 2653.5Z" fill="#1F437E"/>
                  <path id="Vector_25" d="M1680.11 2652.85H1722.81L1724.69 2653.5L1726.1 2654.36L1727.74 2656.09L1728.44 2658.04V2660.63L1727.5 2662.57L1725.86 2664.3L1723.75 2665.38L1722.81 2665.6H1688.56V2681.15H1722.58L1725.16 2682.01L1726.57 2683.09L1727.97 2685.25L1728.44 2687.63L1727.97 2689.79L1726.57 2691.95L1724.69 2693.24L1722.58 2693.89H1688.56V2709.44H1722.58L1725.16 2710.31L1726.57 2711.39L1727.97 2713.55L1728.44 2715.92L1727.97 2718.08L1726.57 2720.24L1724.69 2721.54L1722.58 2722.19H1680.11L1677.77 2721.32L1675.89 2719.81L1674.72 2717.65L1674.48 2716.57V2658.25L1675.42 2655.88L1677.06 2654.15L1679.18 2653.07L1680.11 2652.85Z" fill="#EF2532"/>
                  <path id="Vector_26" d="M1534.43 2612.03H1539.59L1543.81 2612.89L1546.63 2613.97L1548.74 2615.05L1549.91 2615.7L1551.32 2617.43L1559.29 2629.96L1562.58 2635.14L1578.53 2660.2L1578.3 2661.28L1575.48 2664.08L1572.43 2666.46L1569.38 2668.19L1566.33 2669.48L1563.05 2670.13H1560.47L1556.24 2669.7L1552.02 2668.4L1549.21 2666.89L1546.39 2664.52L1544.28 2662.14L1540.53 2656.52L1536.07 2649.61L1528.09 2637.09L1524.81 2631.9L1523.63 2629.53L1522.93 2627.37V2622.61L1523.63 2620.24L1524.81 2618.08L1526.68 2615.92L1528.8 2614.19L1532.55 2612.46L1534.43 2612.03Z" fill="#A22F22"/>
                  <path id="Vector_27" d="M1736.65 2652.85H1779.12L1781.46 2653.72L1783.1 2655.01L1784.28 2656.96L1784.75 2658.68L1784.51 2660.84L1783.57 2662.79L1782.17 2664.3L1779.82 2665.38L1778.88 2665.6H1765.04V2716.57L1764.34 2718.73L1762.93 2720.46L1760.82 2721.75L1759.41 2722.19H1756.59L1754.25 2721.32L1752.61 2720.03L1751.2 2717.43L1750.96 2716.14V2665.6H1736.65L1734.54 2664.95L1732.2 2663L1731.26 2661.28L1731.02 2660.63V2657.82L1731.96 2655.88L1733.6 2654.15L1735.01 2653.28L1736.65 2652.85Z" fill="#EF2532"/>
                  <path id="Vector_28" d="M1654.31 2652.85H1657.12L1659.47 2653.72L1661.35 2655.23L1662.52 2657.39L1662.75 2658.47V2716.57L1662.05 2718.73L1660.64 2720.46L1658.53 2721.75L1657.12 2722.19H1654.31L1651.96 2721.32L1650.32 2720.03L1648.91 2717.43L1648.68 2715.92V2658.9L1649.15 2656.96L1650.55 2654.8L1652.43 2653.5L1654.31 2652.85Z" fill="#EF2532"/>
                </g>
              </g>
            </g>
          </g>
          <g id="Group 234">
            <g id="Group 233">
              <g id="Group 221">
                <path id="Vector 61" d="M1851.7 881H1984.6C2017.74 881 2044.6 907.863 2044.6 941V1073.9" stroke="#025990" stroke-width="6"/>
                <path id="Vector 62" d="M732.898 881H600C566.863 881 540 907.863 540 941V1073.9" stroke="#025990" stroke-width="6"/>
                <path id="Vector 63" d="M1851.7 2412.73H1984.6C2017.74 2412.73 2044.6 2385.87 2044.6 2352.73V2219.84" stroke="#025990" stroke-width="6"/>
                <path id="Vector 64" d="M732.898 2412.73H600C566.863 2412.73 540 2385.87 540 2352.73V2219.84" stroke="#025990" stroke-width="6"/>
              </g>
            </g>
          </g>
          <g id="Frame 2702">
            <path id="Quét mã QR để thanh toán" d="M736.657 739.9C731.197 739.9 726.397 738.94 722.257 737.02C718.117 735.04 714.637 732.43 711.817 729.19C709.057 725.89 706.957 722.2 705.517 718.12C704.137 714.04 703.447 709.87 703.447 705.61C703.447 701.35 704.137 697.21 705.517 693.19C706.957 689.11 709.057 685.45 711.817 682.21C714.637 678.97 718.117 676.39 722.257 674.47C726.397 672.49 731.197 671.5 736.657 671.5C742.117 671.5 746.917 672.49 751.057 674.47C755.197 676.39 758.647 678.97 761.407 682.21C764.227 685.45 766.327 689.11 767.707 693.19C769.147 697.21 769.867 701.35 769.867 705.61C769.867 709.81 769.177 713.92 767.797 717.94C766.477 721.96 764.467 725.56 761.767 728.74L771.307 739H757.717L754.207 735.31C751.807 736.75 749.137 737.89 746.197 738.73C743.317 739.51 740.137 739.9 736.657 739.9ZM736.657 728.83C738.457 728.83 740.137 728.65 741.697 728.29C743.257 727.87 744.697 727.3 746.017 726.58L735.667 715.6L743.407 708.94L753.397 719.74C754.657 717.7 755.617 715.48 756.277 713.08C756.937 710.62 757.267 708.13 757.267 705.61C757.267 701.71 756.457 698.02 754.837 694.54C753.277 691 750.967 688.12 747.907 685.9C744.907 683.68 741.157 682.57 736.657 682.57C732.157 682.57 728.377 683.68 725.317 685.9C722.257 688.12 719.947 691 718.387 694.54C716.827 698.02 716.047 701.71 716.047 705.61C716.047 709.57 716.827 713.32 718.387 716.86C719.947 720.4 722.257 723.28 725.317 725.5C728.377 727.72 732.157 728.83 736.657 728.83ZM794.365 739.9C789.385 739.9 785.605 738.37 783.025 735.31C780.505 732.25 779.245 728.32 779.245 723.52V691.3H791.125V721.54C791.125 724.12 791.815 726.19 793.195 727.75C794.575 729.25 796.525 730 799.045 730C801.265 730 803.065 729.43 804.445 728.29C805.825 727.15 806.815 725.68 807.415 723.88C808.075 722.08 808.405 720.22 808.405 718.3V691.3H820.375V739H808.405V732.16H807.865C807.265 733.24 806.395 734.38 805.255 735.58C804.175 736.78 802.735 737.8 800.935 738.64C799.195 739.48 797.005 739.9 794.365 739.9ZM858.9 684.55L849.81 684.46L857.19 668.26H868.62L858.9 684.55ZM854.76 739.9C850.68 739.9 847.14 739.21 844.14 737.83C841.14 736.39 838.65 734.5 836.67 732.16C834.75 729.76 833.31 727.09 832.35 724.15C831.45 721.21 831 718.21 831 715.15C831 712.09 831.45 709.12 832.35 706.24C833.31 703.3 834.72 700.63 836.58 698.23C838.5 695.83 840.93 693.94 843.87 692.56C846.81 691.12 850.29 690.4 854.31 690.4C858.63 690.4 862.44 691.36 865.74 693.28C869.04 695.2 871.62 698.02 873.48 701.74C875.34 705.4 876.27 709.96 876.27 715.42V718.48H843.06C843.24 721.72 844.32 724.54 846.3 726.94C848.34 729.28 851.16 730.45 854.76 730.45C856.8 730.45 858.48 730.12 859.8 729.46C861.12 728.8 862.14 728.05 862.86 727.21C863.58 726.31 864.06 725.56 864.3 724.96C864.6 724.3 864.75 723.97 864.75 723.97H875.82C875.82 723.97 875.67 724.51 875.37 725.59C875.13 726.61 874.59 727.93 873.75 729.55C872.91 731.11 871.71 732.7 870.15 734.32C868.59 735.88 866.55 737.2 864.03 738.28C861.57 739.36 858.48 739.9 854.76 739.9ZM843.06 710.65H864.75C864.57 706.93 863.46 704.17 861.42 702.37C859.38 700.57 856.98 699.67 854.22 699.67C851.16 699.67 848.61 700.66 846.57 702.64C844.53 704.56 843.36 707.23 843.06 710.65ZM907.542 739.9C904.302 739.9 901.632 739.42 899.532 738.46C897.432 737.5 895.782 736.24 894.582 734.68C893.442 733.12 892.632 731.41 892.152 729.55C891.672 727.69 891.432 725.86 891.432 724.06V700.93H883.242V691.3H891.432V679.42H903.402V691.3H914.112V700.93H903.402V723.79C903.402 728.05 905.802 730.18 910.602 730.18C911.742 730.18 912.792 730.12 913.752 730C914.772 729.82 915.282 729.73 915.282 729.73V739.09C915.282 739.09 914.502 739.21 912.942 739.45C911.442 739.75 909.642 739.9 907.542 739.9ZM945.798 739V691.3H957.768V697.96H958.218C958.818 696.88 959.658 695.77 960.738 694.63C961.818 693.43 963.198 692.44 964.878 691.66C966.618 690.82 968.748 690.4 971.268 690.4C974.808 690.4 977.718 691.24 979.998 692.92C982.278 694.6 983.958 696.76 985.038 699.4H985.218C986.418 697.12 988.188 695.05 990.528 693.19C992.928 691.33 996.108 690.4 1000.07 690.4C1003.43 690.4 1006.22 691.18 1008.44 692.74C1010.72 694.24 1012.4 696.28 1013.48 698.86C1014.62 701.44 1015.19 704.23 1015.19 707.23V739H1003.22V709.75C1003.22 706.99 1002.53 704.74 1001.15 703C999.828 701.2 997.848 700.3 995.208 700.3C993.108 700.3 991.398 700.87 990.078 702.01C988.818 703.09 987.888 704.47 987.288 706.15C986.748 707.83 986.478 709.54 986.478 711.28V739H974.508V709.75C974.508 706.99 973.848 704.74 972.528 703C971.208 701.2 969.198 700.3 966.498 700.3C964.398 700.3 962.688 700.87 961.368 702.01C960.108 703.09 959.178 704.5 958.578 706.24C958.038 707.92 957.768 709.6 957.768 711.28V739H945.798ZM1056.55 683.65C1054.93 683.65 1053.55 683.38 1052.41 682.84C1051.27 682.24 1050.25 681.58 1049.35 680.86C1048.51 680.08 1047.7 679.42 1046.92 678.88C1046.2 678.28 1045.45 677.98 1044.67 677.98C1043.65 677.98 1042.93 678.46 1042.51 679.42C1042.15 680.32 1041.97 681.55 1041.97 683.11H1035.13C1035.13 681.19 1035.37 679.24 1035.85 677.26C1036.33 675.28 1037.2 673.66 1038.46 672.4C1039.72 671.08 1041.55 670.42 1043.95 670.42C1045.57 670.42 1046.95 670.72 1048.09 671.32C1049.29 671.86 1050.31 672.52 1051.15 673.3C1052.05 674.02 1052.86 674.68 1053.58 675.28C1054.3 675.82 1055.08 676.09 1055.92 676.09C1056.82 676.09 1057.45 675.64 1057.81 674.74C1058.23 673.78 1058.44 672.49 1058.44 670.87H1065.28C1065.28 672.85 1065.04 674.83 1064.56 676.81C1064.08 678.73 1063.21 680.35 1061.95 681.67C1060.69 682.99 1058.89 683.65 1056.55 683.65ZM1046.65 690.4C1049.71 690.4 1052.23 690.91 1054.21 691.93C1056.19 692.89 1057.75 693.97 1058.89 695.17C1060.03 696.31 1060.81 697.24 1061.23 697.96H1061.77V691.3H1073.74V739H1061.77V732.34H1061.23C1060.81 733.06 1060.03 734.02 1058.89 735.22C1057.75 736.42 1056.19 737.5 1054.21 738.46C1052.23 739.42 1049.71 739.9 1046.65 739.9C1043.11 739.9 1040.02 739.21 1037.38 737.83C1034.74 736.39 1032.52 734.5 1030.72 732.16C1028.98 729.76 1027.66 727.09 1026.76 724.15C1025.92 721.21 1025.5 718.21 1025.5 715.15C1025.5 712.09 1025.92 709.09 1026.76 706.15C1027.66 703.21 1028.98 700.57 1030.72 698.23C1032.52 695.83 1034.74 693.94 1037.38 692.56C1040.02 691.12 1043.11 690.4 1046.65 690.4ZM1049.8 700.21C1047.1 700.21 1044.82 700.96 1042.96 702.46C1041.16 703.9 1039.81 705.76 1038.91 708.04C1038.01 710.32 1037.56 712.69 1037.56 715.15C1037.56 717.61 1038.01 719.98 1038.91 722.26C1039.81 724.54 1041.16 726.43 1042.96 727.93C1044.82 729.37 1047.1 730.09 1049.8 730.09C1052.5 730.09 1054.75 729.37 1056.55 727.93C1058.35 726.43 1059.7 724.54 1060.6 722.26C1061.5 719.98 1061.95 717.61 1061.95 715.15C1061.95 712.69 1061.5 710.32 1060.6 708.04C1059.7 705.76 1058.35 703.9 1056.55 702.46C1054.75 700.96 1052.5 700.21 1049.8 700.21ZM1137.79 739.9C1132.33 739.9 1127.53 738.94 1123.39 737.02C1119.25 735.04 1115.77 732.43 1112.95 729.19C1110.19 725.89 1108.09 722.2 1106.65 718.12C1105.27 714.04 1104.58 709.87 1104.58 705.61C1104.58 701.35 1105.27 697.21 1106.65 693.19C1108.09 689.11 1110.19 685.45 1112.95 682.21C1115.77 678.97 1119.25 676.39 1123.39 674.47C1127.53 672.49 1132.33 671.5 1137.79 671.5C1143.25 671.5 1148.05 672.49 1152.19 674.47C1156.33 676.39 1159.78 678.97 1162.54 682.21C1165.36 685.45 1167.46 689.11 1168.84 693.19C1170.28 697.21 1171 701.35 1171 705.61C1171 709.81 1170.31 713.92 1168.93 717.94C1167.61 721.96 1165.6 725.56 1162.9 728.74L1172.44 739H1158.85L1155.34 735.31C1152.94 736.75 1150.27 737.89 1147.33 738.73C1144.45 739.51 1141.27 739.9 1137.79 739.9ZM1137.79 728.83C1139.59 728.83 1141.27 728.65 1142.83 728.29C1144.39 727.87 1145.83 727.3 1147.15 726.58L1136.8 715.6L1144.54 708.94L1154.53 719.74C1155.79 717.7 1156.75 715.48 1157.41 713.08C1158.07 710.62 1158.4 708.13 1158.4 705.61C1158.4 701.71 1157.59 698.02 1155.97 694.54C1154.41 691 1152.1 688.12 1149.04 685.9C1146.04 683.68 1142.29 682.57 1137.79 682.57C1133.29 682.57 1129.51 683.68 1126.45 685.9C1123.39 688.12 1121.08 691 1119.52 694.54C1117.96 698.02 1117.18 701.71 1117.18 705.61C1117.18 709.57 1117.96 713.32 1119.52 716.86C1121.08 720.4 1123.39 723.28 1126.45 725.5C1129.51 727.72 1133.29 728.83 1137.79 728.83ZM1181.28 739V672.4H1207.2C1212 672.4 1216.08 673.3 1219.44 675.1C1222.86 676.84 1225.44 679.24 1227.18 682.3C1228.98 685.3 1229.88 688.69 1229.88 692.47C1229.88 696.73 1228.74 700.54 1226.46 703.9C1224.18 707.2 1220.88 709.6 1216.56 711.1L1231.86 739H1218.27L1204.05 712.54H1193.52V739H1181.28ZM1207.02 683.02H1193.52V702.55H1207.02C1210.44 702.55 1213.05 701.59 1214.85 699.67C1216.65 697.69 1217.55 695.38 1217.55 692.74C1217.55 690.1 1216.65 687.82 1214.85 685.9C1213.05 683.98 1210.44 683.02 1207.02 683.02ZM1284.3 739.9C1280.76 739.9 1277.67 739.21 1275.03 737.83C1272.39 736.39 1270.17 734.5 1268.37 732.16C1266.63 729.76 1265.31 727.09 1264.41 724.15C1263.57 721.21 1263.15 718.21 1263.15 715.15C1263.15 712.09 1263.57 709.09 1264.41 706.15C1265.31 703.21 1266.63 700.57 1268.37 698.23C1270.17 695.83 1272.39 693.94 1275.03 692.56C1277.67 691.12 1280.76 690.4 1284.3 690.4C1287.36 690.4 1289.88 690.91 1291.86 691.93C1293.84 692.89 1295.4 693.97 1296.54 695.17C1297.68 696.31 1298.46 697.24 1298.88 697.96H1299.42V686.89H1287.45V678.7H1299.42V670.6H1311.39V678.7H1319.04V686.89H1311.39V739H1299.42V732.34H1298.88C1298.46 733.06 1297.68 734.02 1296.54 735.22C1295.4 736.42 1293.84 737.5 1291.86 738.46C1289.88 739.42 1287.36 739.9 1284.3 739.9ZM1287.45 730.09C1290.15 730.09 1292.4 729.37 1294.2 727.93C1296 726.43 1297.35 724.54 1298.25 722.26C1299.15 719.98 1299.6 717.61 1299.6 715.15C1299.6 712.69 1299.15 710.32 1298.25 708.04C1297.35 705.76 1296 703.9 1294.2 702.46C1292.4 700.96 1290.15 700.21 1287.45 700.21C1284.75 700.21 1282.47 700.96 1280.61 702.46C1278.81 703.9 1277.46 705.76 1276.56 708.04C1275.66 710.32 1275.21 712.69 1275.21 715.15C1275.21 717.61 1275.66 719.98 1276.56 722.26C1277.46 724.54 1278.81 726.43 1280.61 727.93C1282.47 729.37 1284.75 730.09 1287.45 730.09ZM1361.21 674.65V671.77C1361.21 671.05 1361.36 670.36 1361.66 669.7C1361.96 669.04 1362.5 668.5 1363.28 668.08L1364.63 667.45C1365.95 666.79 1366.94 666.13 1367.6 665.47C1368.26 664.81 1368.59 664 1368.59 663.04C1368.59 662.26 1368.29 661.57 1367.69 660.97C1367.09 660.37 1366.22 660.07 1365.08 660.07C1363.94 660.07 1363.1 660.34 1362.56 660.88C1362.02 661.36 1361.69 661.9 1361.57 662.5C1361.45 663.1 1361.39 663.49 1361.39 663.67H1354.19C1354.13 662.11 1354.46 660.58 1355.18 659.08C1355.9 657.52 1357.07 656.23 1358.69 655.21C1360.31 654.19 1362.38 653.68 1364.9 653.68C1368.38 653.68 1371.14 654.58 1373.18 656.38C1375.22 658.18 1376.24 660.34 1376.24 662.86C1376.24 664.84 1375.58 666.55 1374.26 667.99C1372.94 669.43 1371.11 670.75 1368.77 671.95L1368.41 672.13V674.65H1361.21ZM1332.23 685.09L1343.66 671.41H1353.29L1364.72 685.09H1355L1348.43 677.17L1341.95 685.09H1332.23ZM1349.06 739.9C1344.98 739.9 1341.44 739.21 1338.44 737.83C1335.44 736.39 1332.95 734.5 1330.97 732.16C1329.05 729.76 1327.61 727.09 1326.65 724.15C1325.75 721.21 1325.3 718.21 1325.3 715.15C1325.3 712.09 1325.75 709.12 1326.65 706.24C1327.61 703.3 1329.02 700.63 1330.88 698.23C1332.8 695.83 1335.23 693.94 1338.17 692.56C1341.11 691.12 1344.59 690.4 1348.61 690.4C1352.93 690.4 1356.74 691.36 1360.04 693.28C1363.34 695.2 1365.92 698.02 1367.78 701.74C1369.64 705.4 1370.57 709.96 1370.57 715.42V718.48H1337.36C1337.54 721.72 1338.62 724.54 1340.6 726.94C1342.64 729.28 1345.46 730.45 1349.06 730.45C1351.1 730.45 1352.78 730.12 1354.1 729.46C1355.42 728.8 1356.44 728.05 1357.16 727.21C1357.88 726.31 1358.36 725.56 1358.6 724.96C1358.9 724.3 1359.05 723.97 1359.05 723.97H1370.12C1370.12 723.97 1369.97 724.51 1369.67 725.59C1369.43 726.61 1368.89 727.93 1368.05 729.55C1367.21 731.11 1366.01 732.7 1364.45 734.32C1362.89 735.88 1360.85 737.2 1358.33 738.28C1355.87 739.36 1352.78 739.9 1349.06 739.9ZM1337.36 710.65H1359.05C1358.87 706.93 1357.76 704.17 1355.72 702.37C1353.68 700.57 1351.28 699.67 1348.52 699.67C1345.46 699.67 1342.91 700.66 1340.87 702.64C1338.83 704.56 1337.66 707.23 1337.36 710.65ZM1423.46 739.9C1420.22 739.9 1417.55 739.42 1415.45 738.46C1413.35 737.5 1411.7 736.24 1410.5 734.68C1409.36 733.12 1408.55 731.41 1408.07 729.55C1407.59 727.69 1407.35 725.86 1407.35 724.06V700.93H1399.16V691.3H1407.35V679.42H1419.32V691.3H1430.03V700.93H1419.32V723.79C1419.32 728.05 1421.72 730.18 1426.52 730.18C1427.66 730.18 1428.71 730.12 1429.67 730C1430.69 729.82 1431.2 729.73 1431.2 729.73V739.09C1431.2 739.09 1430.42 739.21 1428.86 739.45C1427.36 739.75 1425.56 739.9 1423.46 739.9ZM1441.87 739V670.6H1453.84V698.14H1454.38C1454.86 697.3 1455.61 696.28 1456.63 695.08C1457.65 693.82 1459.06 692.74 1460.86 691.84C1462.66 690.88 1464.94 690.4 1467.7 690.4C1471.36 690.4 1474.36 691.24 1476.7 692.92C1479.1 694.54 1480.87 696.7 1482.01 699.4C1483.21 702.1 1483.81 705.01 1483.81 708.13V739H1471.84V709.75C1471.84 707.17 1471.12 704.95 1469.68 703.09C1468.24 701.23 1466.08 700.3 1463.2 700.3C1460.98 700.3 1459.18 700.87 1457.8 702.01C1456.42 703.09 1455.4 704.5 1454.74 706.24C1454.14 707.98 1453.84 709.81 1453.84 711.73V739H1441.87ZM1515.02 690.4C1518.08 690.4 1520.6 690.91 1522.58 691.93C1524.56 692.89 1526.12 693.97 1527.26 695.17C1528.4 696.31 1529.18 697.24 1529.6 697.96H1530.14V691.3H1542.11V739H1530.14V732.34H1529.6C1529.18 733.06 1528.4 734.02 1527.26 735.22C1526.12 736.42 1524.56 737.5 1522.58 738.46C1520.6 739.42 1518.08 739.9 1515.02 739.9C1511.48 739.9 1508.39 739.21 1505.75 737.83C1503.11 736.39 1500.89 734.5 1499.09 732.16C1497.35 729.76 1496.03 727.09 1495.13 724.15C1494.29 721.21 1493.87 718.21 1493.87 715.15C1493.87 712.09 1494.29 709.09 1495.13 706.15C1496.03 703.21 1497.35 700.57 1499.09 698.23C1500.89 695.83 1503.11 693.94 1505.75 692.56C1508.39 691.12 1511.48 690.4 1515.02 690.4ZM1518.17 700.21C1515.47 700.21 1513.19 700.96 1511.33 702.46C1509.53 703.9 1508.18 705.76 1507.28 708.04C1506.38 710.32 1505.93 712.69 1505.93 715.15C1505.93 717.61 1506.38 719.98 1507.28 722.26C1508.18 724.54 1509.53 726.43 1511.33 727.93C1513.19 729.37 1515.47 730.09 1518.17 730.09C1520.87 730.09 1523.12 729.37 1524.92 727.93C1526.72 726.43 1528.07 724.54 1528.97 722.26C1529.87 719.98 1530.32 717.61 1530.32 715.15C1530.32 712.69 1529.87 710.32 1528.97 708.04C1528.07 705.76 1526.72 703.9 1524.92 702.46C1523.12 700.96 1520.87 700.21 1518.17 700.21ZM1553.47 739V691.3H1565.44V698.14H1565.98C1566.46 697.3 1567.21 696.28 1568.23 695.08C1569.25 693.82 1570.66 692.74 1572.46 691.84C1574.26 690.88 1576.54 690.4 1579.3 690.4C1582.96 690.4 1585.96 691.24 1588.3 692.92C1590.7 694.54 1592.47 696.7 1593.61 699.4C1594.81 702.1 1595.41 705.01 1595.41 708.13V739H1583.44V709.75C1583.44 707.17 1582.72 704.95 1581.28 703.09C1579.84 701.23 1577.68 700.3 1574.8 700.3C1572.58 700.3 1570.78 700.87 1569.4 702.01C1568.02 703.09 1567 704.5 1566.34 706.24C1565.74 707.98 1565.44 709.81 1565.44 711.73V739H1553.47ZM1607.46 739V670.6H1619.43V698.14H1619.97C1620.45 697.3 1621.2 696.28 1622.22 695.08C1623.24 693.82 1624.65 692.74 1626.45 691.84C1628.25 690.88 1630.53 690.4 1633.29 690.4C1636.95 690.4 1639.95 691.24 1642.29 692.92C1644.69 694.54 1646.46 696.7 1647.6 699.4C1648.8 702.1 1649.4 705.01 1649.4 708.13V739H1637.43V709.75C1637.43 707.17 1636.71 704.95 1635.27 703.09C1633.83 701.23 1631.67 700.3 1628.79 700.3C1626.57 700.3 1624.77 700.87 1623.39 702.01C1622.01 703.09 1620.99 704.5 1620.33 706.24C1619.73 707.98 1619.43 709.81 1619.43 711.73V739H1607.46ZM1702.78 739.9C1699.54 739.9 1696.87 739.42 1694.77 738.46C1692.67 737.5 1691.02 736.24 1689.82 734.68C1688.68 733.12 1687.87 731.41 1687.39 729.55C1686.91 727.69 1686.67 725.86 1686.67 724.06V700.93H1678.48V691.3H1686.67V679.42H1698.64V691.3H1709.35V700.93H1698.64V723.79C1698.64 728.05 1701.04 730.18 1705.84 730.18C1706.98 730.18 1708.03 730.12 1708.99 730C1710.01 729.82 1710.52 729.73 1710.52 729.73V739.09C1710.52 739.09 1709.74 739.21 1708.18 739.45C1706.68 739.75 1704.88 739.9 1702.78 739.9ZM1743 739.9C1737.78 739.9 1733.34 738.73 1729.68 736.39C1726.02 734.05 1723.23 731.02 1721.31 727.3C1719.45 723.52 1718.52 719.47 1718.52 715.15C1718.52 710.83 1719.45 706.81 1721.31 703.09C1723.23 699.31 1726.02 696.25 1729.68 693.91C1733.34 691.57 1737.78 690.4 1743 690.4C1748.28 690.4 1752.72 691.57 1756.32 693.91C1759.98 696.25 1762.74 699.31 1764.6 703.09C1766.52 706.81 1767.48 710.83 1767.48 715.15C1767.48 719.47 1766.52 723.52 1764.6 727.3C1762.74 731.02 1759.98 734.05 1756.32 736.39C1752.72 738.73 1748.28 739.9 1743 739.9ZM1743 729.91C1745.7 729.91 1747.95 729.22 1749.75 727.84C1751.61 726.46 1753.02 724.66 1753.98 722.44C1754.94 720.16 1755.42 717.73 1755.42 715.15C1755.42 712.51 1754.94 710.08 1753.98 707.86C1753.02 705.64 1751.61 703.84 1749.75 702.46C1747.95 701.08 1745.7 700.39 1743 700.39C1740.36 700.39 1738.11 701.08 1736.25 702.46C1734.39 703.84 1732.98 705.64 1732.02 707.86C1731.06 710.08 1730.58 712.51 1730.58 715.15C1730.58 717.73 1731.06 720.16 1732.02 722.44C1732.98 724.66 1734.39 726.46 1736.25 727.84C1738.11 729.22 1740.36 729.91 1743 729.91ZM1806.22 684.46L1797.13 684.37L1804.51 668.26H1815.94L1806.22 684.46ZM1798.21 690.4C1801.27 690.4 1803.79 690.91 1805.77 691.93C1807.75 692.89 1809.31 693.97 1810.45 695.17C1811.59 696.31 1812.37 697.24 1812.79 697.96H1813.33V691.3H1825.3V739H1813.33V732.34H1812.79C1812.37 733.06 1811.59 734.02 1810.45 735.22C1809.31 736.42 1807.75 737.5 1805.77 738.46C1803.79 739.42 1801.27 739.9 1798.21 739.9C1794.67 739.9 1791.58 739.21 1788.94 737.83C1786.3 736.39 1784.08 734.5 1782.28 732.16C1780.54 729.76 1779.22 727.09 1778.32 724.15C1777.48 721.21 1777.06 718.21 1777.06 715.15C1777.06 712.09 1777.48 709.09 1778.32 706.15C1779.22 703.21 1780.54 700.57 1782.28 698.23C1784.08 695.83 1786.3 693.94 1788.94 692.56C1791.58 691.12 1794.67 690.4 1798.21 690.4ZM1801.36 700.21C1798.66 700.21 1796.38 700.96 1794.52 702.46C1792.72 703.9 1791.37 705.76 1790.47 708.04C1789.57 710.32 1789.12 712.69 1789.12 715.15C1789.12 717.61 1789.57 719.98 1790.47 722.26C1791.37 724.54 1792.72 726.43 1794.52 727.93C1796.38 729.37 1798.66 730.09 1801.36 730.09C1804.06 730.09 1806.31 729.37 1808.11 727.93C1809.91 726.43 1811.26 724.54 1812.16 722.26C1813.06 719.98 1813.51 717.61 1813.51 715.15C1813.51 712.69 1813.06 710.32 1812.16 708.04C1811.26 705.76 1809.91 703.9 1808.11 702.46C1806.31 700.96 1804.06 700.21 1801.36 700.21ZM1837.1 739V691.3H1849.07V698.14H1849.61C1850.09 697.3 1850.84 696.28 1851.86 695.08C1852.88 693.82 1854.29 692.74 1856.09 691.84C1857.89 690.88 1860.17 690.4 1862.93 690.4C1866.59 690.4 1869.59 691.24 1871.93 692.92C1874.33 694.54 1876.1 696.7 1877.24 699.4C1878.44 702.1 1879.04 705.01 1879.04 708.13V739H1867.07V709.75C1867.07 707.17 1866.35 704.95 1864.91 703.09C1863.47 701.23 1861.31 700.3 1858.43 700.3C1856.21 700.3 1854.41 700.87 1853.03 702.01C1851.65 703.09 1850.63 704.5 1849.97 706.24C1849.37 707.98 1849.07 709.81 1849.07 711.73V739H1837.1Z" fill="#025990"/>
          </g>
          <g id="qrcode">
            <rect x="611.5" y="967.5" width="1360" height="1360" stroke="black"/>
            <svg x="611.5" y="967.5" width="1360" height="1360" viewBox="0 0 47 47" preserveAspectRatio="xMidYMid meet">
              <path fill="#ffffff" d="M0 0h47v47H0z"/>
              <path stroke="#000000" d="M1 1.5h7m1 0h4m1 0h1m1 0h1m1 0h2m3 0h1m1 0h2m1 0h2m1 0h1m5 0h1m1 0h7M1 2.5h1m5 0h1m2 0h1m1 0h2m1 0h2m1 0h3m1 0h3m1 0h1m1 0h1m3 0h3m1 0h1m2 0h1m5 0h1M1 3.5h1m1 0h3m1 0h1m2 0h2m2 0h1m3 0h1m1 0h1m3 0h2m5 0h1m1 0h1m2 0h1m2 0h1m1 0h3m1 0h1M1 4.5h1m1 0h3m1 0h1m1 0h2m4 0h3m1 0h2m2 0h1m1 0h2m1 0h1m2 0h1m1 0h2m1 0h2m1 0h1m1 0h3m1 0h1M1 5.5h1m1 0h3m1 0h1m2 0h1m3 0h1m1 0h11m4 0h1m3 0h3m1 0h1m1 0h3m1 0h1M1 6.5h1m5 0h1m3 0h1m3 0h1m1 0h2m2 0h1m3 0h7m1 0h2m4 0h1m5 0h1M1 7.5h7m1 0h1m1 0h1m1 0h1m1 0h1m1 0h1m1 0h1m1 0h1m1 0h1m1 0h1m1 0h1m1 0h1m1 0h1m1 0h1m1 0h1m1 0h1m1 0h7M10 8.5h1m2 0h1m3 0h2m2 0h1m3 0h2m3 0h2m3 0h1M3 9.5h1m1 0h3m1 0h1m1 0h1m3 0h1m1 0h2m2 0h5m2 0h1m2 0h1m1 0h1m4 0h1m3 0h1m2 0h1M1 10.5h1m1 0h1m2 0h1m1 0h3m1 0h3m2 0h2m3 0h1m1 0h3m1 0h2m2 0h1m1 0h1m1 0h1m1 0h1m1 0h1m1 0h2M1 11.5h3m3 0h2m1 0h1m2 0h2m1 0h1m2 0h2m1 0h1m1 0h2m1 0h2m1 0h6m3 0h1m1 0h1m2 0h2M2 12.5h3m1 0h1m1 0h1m2 0h1m1 0h6m1 0h1m1 0h1m4 0h2m2 0h2m1 0h1m2 0h3m3 0h2M1 13.5h1m1 0h2m1 0h5m1 0h3m5 0h1m1 0h6m1 0h3m1 0h3m4 0h2m1 0h1m1 0h1M2 14.5h2m6 0h1m1 0h2m3 0h2m5 0h2m4 0h1m2 0h1m2 0h3m2 0h2m2 0h1M7 15.5h1m2 0h2m1 0h1m1 0h7m1 0h2m1 0h1m1 0h1m3 0h2m2 0h1m1 0h1m1 0h1m2 0h3M2 16.5h1m1 0h3m3 0h1m2 0h1m1 0h1m5 0h1m2 0h3m2 0h2m2 0h1m4 0h1m1 0h1m1 0h1M1 17.5h1m1 0h1m3 0h1m1 0h2m1 0h2m1 0h2m1 0h2m7 0h11m1 0h1m1 0h1m1 0h3M3 18.5h1m1 0h1m2 0h2m5 0h2m2 0h4m4 0h2m1 0h1m1 0h1m1 0h3m1 0h1m1 0h1m1 0h1m1 0h1M1 19.5h1m2 0h2m1 0h3m1 0h1m2 0h2m1 0h3m3 0h2m1 0h1m2 0h3m1 0h2m2 0h2m1 0h2m1 0h1m1 0h1M4 20.5h1m3 0h1m1 0h1m1 0h1m4 0h6m3 0h3m2 0h2m1 0h1m6 0h2m1 0h1M1 21.5h3m1 0h5m3 0h2m1 0h1m1 0h10m4 0h10m1 0h2M1 22.5h5m3 0h2m1 0h2m3 0h1m3 0h1m3 0h1m2 0h2m1 0h2m2 0h3m3 0h1m2 0h1M1 23.5h1m3 0h1m1 0h1m1 0h1m3 0h1m1 0h1m1 0h1m1 0h3m1 0h1m1 0h1m2 0h1m2 0h1m1 0h1m1 0h1m1 0h1m1 0h1m1 0h1m3 0h1M3 24.5h1m1 0h1m3 0h1m1 0h3m1 0h2m1 0h1m2 0h1m3 0h1m1 0h1m1 0h2m3 0h1m1 0h2m3 0h1M1 25.5h1m1 0h7m10 0h6m1 0h1m1 0h1m3 0h1m1 0h1m1 0h5m1 0h3M2 26.5h3m1 0h1m1 0h1m1 0h1m1 0h1m2 0h3m2 0h1m2 0h2m1 0h2m1 0h1m1 0h1m2 0h1m1 0h1m5 0h1m1 0h1M2 27.5h2m1 0h7m1 0h2m2 0h1m1 0h3m2 0h1m2 0h1m1 0h3m1 0h1m1 0h2m3 0h3m2 0h1M1 28.5h1m1 0h2m1 0h1m2 0h1m2 0h1m7 0h3m1 0h1m3 0h1m2 0h2m1 0h1m1 0h1m1 0h1m2 0h1m2 0h1M1 29.5h1m1 0h1m3 0h1m1 0h1m1 0h1m1 0h1m1 0h3m1 0h6m2 0h1m1 0h3m1 0h1m1 0h1m3 0h1m1 0h1m1 0h1m1 0h1M3 30.5h1m2 0h1m1 0h5m1 0h1m1 0h1m1 0h3m1 0h6m1 0h1m1 0h2m3 0h2m1 0h2m4 0h1M2 31.5h1m4 0h1m3 0h1m8 0h2m3 0h1m1 0h1m5 0h7m1 0h3m1 0h1M1 32.5h2m1 0h1m5 0h2m2 0h1m1 0h1m1 0h1m1 0h2m2 0h5m1 0h1m1 0h1m2 0h2m1 0h2m2 0h1m1 0h2M1 33.5h1m1 0h3m1 0h1m1 0h2m1 0h2m1 0h2m3 0h1m1 0h1m1 0h1m1 0h7m2 0h2m3 0h4M1 34.5h1m2 0h1m1 0h1m1 0h1m1 0h1m5 0h2m5 0h1m1 0h2m7 0h1m3 0h1m1 0h1m1 0h1m1 0h1M5 35.5h1m1 0h1m1 0h1m4 0h1m2 0h2m1 0h1m4 0h1m1 0h4m2 0h1m1 0h1m1 0h6M2 36.5h4m3 0h1m4 0h2m1 0h1m2 0h2m2 0h1m3 0h1m1 0h1m4 0h1m3 0h2m1 0h1M1 37.5h1m2 0h2m1 0h1m2 0h1m2 0h1m1 0h1m1 0h1m2 0h6m1 0h1m4 0h1m1 0h1m2 0h5m3 0h1M9 38.5h2m1 0h1m1 0h2m3 0h1m1 0h1m3 0h2m1 0h1m1 0h5m1 0h2m3 0h2m1 0h2M1 39.5h7m6 0h2m3 0h3m1 0h1m1 0h2m1 0h1m4 0h1m3 0h1m1 0h1m1 0h1m1 0h3M1 40.5h1m5 0h1m1 0h1m1 0h1m2 0h5m1 0h2m3 0h1m1 0h1m1 0h1m2 0h1m4 0h1m3 0h2m1 0h1M1 41.5h1m1 0h3m1 0h1m1 0h2m3 0h1m5 0h8m5 0h1m1 0h7m3 0h1M1 42.5h1m1 0h3m1 0h1m2 0h1m2 0h3m1 0h1m7 0h2m1 0h1m1 0h2m4 0h1m4 0h1m2 0h1M1 43.5h1m1 0h3m1 0h1m1 0h1m1 0h2m1 0h1m1 0h1m1 0h1m1 0h4m2 0h1m1 0h1m2 0h1m1 0h2m4 0h2m2 0h1m1 0h1M1 44.5h1m5 0h1m2 0h1m1 0h2m3 0h1m3 0h3m1 0h6m1 0h1m2 0h1m1 0h1m1 0h2m2 0h1M1 45.5h7m2 0h1m1 0h1m2 0h1m1 0h1m3 0h2m3 0h4m2 0h1m4 0h7m1 0h1"/>
            </svg>
          </g>
        </g>
      </g>
      <g id="Frame 1274">
        <g id="Frame 1252">
          <g id="Group 267">
            <path id="Vector_29" d="M1784.58 3144.32H1809.11L1822.32 3146.21L1836.78 3149.98L1849.36 3155.02L1863.83 3162.56L1874.52 3170.11L1883.32 3177.66L1892.13 3186.46L1899.05 3195.27L1905.34 3204.7L1911.63 3216.02L1916.66 3228.6L1920.43 3241.81L1922.32 3251.24L1923.58 3264.45V3276.4L1922.32 3288.98L1919.17 3304.07L1914.77 3317.28L1911.63 3324.2L1899.05 3318.54L1884.58 3312.25L1863.83 3305.33L1845.59 3300.93L1834.9 3299.04L1833.64 3298.41V3233.63H1760.05V3298.41L1739.93 3302.81L1723.58 3307.22L1705.97 3313.51L1693.39 3319.17L1682.69 3324.2L1679.55 3317.91L1674.52 3302.81L1672 3290.86L1670.75 3280.17V3260.05L1673.26 3243.07L1677.03 3229.86L1680.81 3219.8L1687.1 3207.22L1695.9 3194.01L1702.82 3185.83L1709.11 3178.92L1714.14 3174.51L1723.58 3166.97L1736.78 3158.79L1748.73 3153.13L1763.83 3148.1L1778.92 3144.95L1784.58 3144.32Z" fill="#025990"/>
            <path id="Vector_30" d="M1199.68 3300.3H1268.86L1278.92 3302.18L1288.36 3305.96L1295.27 3310.36L1302.19 3317.28L1307.22 3326.08L1309.11 3334.26V3348.72L1306.59 3356.9L1302.82 3363.19L1297.16 3368.85L1292.76 3371.99L1294.02 3373.25L1301.56 3377.02L1307.85 3382.06L1312.25 3388.35L1315.4 3395.26L1317.29 3405.96V3414.13L1316.03 3421.68L1312.88 3430.48L1307.85 3438.03L1300.93 3444.95L1292.76 3449.98L1283.32 3453.75L1275.15 3455.64L1270.12 3456.27H1199.68V3300.3ZM1236.15 3329.23V3361.3H1263.2L1268.86 3358.79L1273.89 3354.38L1276.41 3348.72V3341.8L1273.89 3336.14L1270.75 3333L1265.71 3329.86L1263.2 3329.23H1236.15ZM1236.15 3390.23V3427.34H1269.49L1275.78 3424.82L1278.92 3422.31L1282.69 3416.65L1283.95 3412.25V3405.33L1281.44 3399.04L1277.03 3394.01L1270.75 3390.86L1266.97 3390.23H1236.15Z" fill="#015990"/>
            <path id="Vector_31" d="M1787.73 3312.88H1805.97L1827.35 3314.77L1845.59 3317.91L1864.46 3322.94L1878.92 3327.97L1893.39 3334.26L1902.82 3339.29L1898.42 3346.21L1890.87 3355.02L1880.18 3365.71L1869.49 3373.89L1859.42 3380.18L1849.36 3385.21L1840.56 3388.98L1827.98 3392.75L1815.4 3395.27L1802.19 3396.53H1790.87L1774.52 3394.64L1758.8 3390.87L1745.59 3385.84L1731.12 3378.29L1721.06 3371.37L1714.14 3365.71L1704.71 3356.91L1697.16 3348.1L1691.5 3339.92V3338.67L1708.48 3330.49L1725.46 3324.2L1740.56 3319.8L1754.39 3316.65L1771.37 3314.14L1787.73 3312.88Z" fill="#D21549"/>
            <path id="Vector_32" d="M660.053 3299.67H695.273L699.676 3300.3L702.192 3305.33L711.626 3329.86L722.317 3356.9L736.154 3392.12L738.67 3397.78L751.248 3365.71L765.085 3330.49L777.034 3300.3L777.663 3299.67H809.739L810.368 3300.93L799.676 3327.97L785.839 3363.19L776.405 3387.09L763.827 3419.17L755.651 3439.92L752.506 3445.58L748.104 3450.61L741.814 3454.39L736.154 3456.27H721.06L714.141 3439.29L702.821 3410.36L688.984 3375.14L662.569 3307.85L660.053 3301.56V3299.67Z" fill="#025A90"/>
            <path id="Vector_33" d="M1375.15 3344.32H1381.44L1390.24 3345.58L1398.42 3348.73L1404.71 3353.13L1409.74 3358.79L1410.37 3348.1H1442.44V3456.27H1410.37L1409.74 3445.58L1405.97 3450.61L1400.3 3455.02L1393.39 3458.16L1383.95 3460.05H1372L1362.57 3458.16L1354.39 3455.02L1348.1 3451.24L1341.19 3445.58L1334.9 3438.03L1329.24 3427.34L1326.09 3416.65L1324.83 3405.96V3398.41L1326.09 3388.35L1329.24 3377.66L1334.27 3368.22L1339.3 3361.93L1342.44 3358.16L1350.62 3351.87L1359.42 3347.47L1369.49 3344.95L1375.15 3344.32ZM1378.29 3375.14L1371.37 3377.66L1365.71 3382.06L1360.68 3388.98L1358.17 3396.53V3408.48L1360.68 3415.39L1364.46 3421.05L1370.12 3426.09L1375.15 3428.6L1380.81 3429.86H1386.47L1394.02 3427.97L1400.3 3424.2L1405.34 3418.54L1408.48 3412.25L1409.74 3406.59V3397.78L1407.85 3390.87L1404.71 3385.2L1400.93 3380.8L1394.64 3377.03L1388.98 3375.14H1378.29Z" fill="#015990"/>
            <path id="Vector_34" d="M1574.52 3299.67H1583.95L1590.24 3301.56L1595.9 3304.7L1601.56 3309.73L1605.97 3317.28L1607.85 3326.09V3385.2L1616.66 3376.4L1621.06 3371.37L1626.72 3365.08L1633.64 3357.53L1638.04 3352.5L1641.81 3348.1H1682.69L1678.92 3353.13L1666.97 3365.08L1662.57 3370.11L1655.02 3377.66L1650.62 3382.69L1641.81 3391.49L1638.04 3395.9L1639.3 3398.41L1648.1 3410.36L1656.91 3421.68L1666.34 3434.26L1675.15 3445.58L1682.69 3455.64V3456.27H1639.93L1634.9 3449.36L1608.48 3409.73L1607.85 3455.64L1607.22 3456.27H1574.52L1573.89 3449.36V3316.02L1574.52 3299.67Z" fill="#055B91"/>
            <path id="Vector_35" d="M888.355 3344.95H903.449L914.141 3347.46L921.688 3350.61L931.122 3356.9L939.927 3365.7L945.588 3374.51L949.99 3384.57L951.877 3392.75L952.506 3404.07L951.877 3411.62L951.248 3412.24H870.116L872.003 3419.79L874.519 3424.82L877.663 3428.6L883.324 3432.37L889.613 3434.89H900.934L907.852 3432.37L913.512 3427.97L917.915 3422.31H948.103L947.475 3426.08L943.072 3434.26L938.041 3440.55L933.638 3445.58L926.091 3451.24L916.657 3456.27L904.707 3459.41L894.015 3460.04L883.324 3458.79L873.261 3455.64L865.085 3451.24L858.795 3446.21L854.393 3442.43L849.361 3436.14L844.33 3427.34L841.185 3419.16L839.298 3409.73V3394.63L841.814 3383.31L844.959 3375.77L849.361 3368.85L854.393 3362.56L858.795 3358.16L865.714 3353.13L875.776 3348.09L884.581 3345.58L888.355 3344.95ZM891.5 3369.48L883.953 3371.99L877.663 3376.4L873.261 3382.06L870.745 3387.72V3390.23L890.242 3390.86H916.028L920.431 3390.23L919.173 3384.57L914.77 3377.65L908.481 3372.62L902.192 3370.11L899.676 3369.48H891.5Z" fill="#025A90"/>
            <path id="Vector_36" d="M1512.88 3344.95H1526.09L1533.64 3346.84L1541.81 3351.24L1548.1 3356.9L1553.14 3363.19L1556.28 3370.11L1558.17 3377.02L1558.8 3383.94V3456.27H1526.09L1525.46 3388.97L1523.58 3382.69L1518.54 3377.02L1512.88 3374.51H1504.08L1498.42 3377.02L1495.27 3379.54L1491.5 3387.09L1490.87 3456.27H1458.17V3348.72H1488.36V3359.41H1489.61L1490.87 3356.9L1497.16 3351.24L1505.97 3346.84L1512.88 3344.95Z" fill="#025A90"/>
            <path id="Vector_37" d="M1138.04 3344.95H1151.25L1160.05 3347.46L1166.97 3351.24L1174.52 3358.16L1178.92 3365.08L1182.07 3372.62L1183.32 3378.28V3456.27H1150.62L1149.99 3386.46L1146.85 3380.17L1142.44 3376.4L1138.04 3374.51H1129.24L1122.95 3377.02L1118.54 3382.06L1116.66 3386.46L1116.03 3390.86L1115.4 3456.27H1083.32V3348.72H1113.51L1114.14 3358.79L1120.43 3352.5L1129.24 3347.46L1134.9 3345.58L1138.04 3344.95Z" fill="#015990"/>
            <path id="Vector_38" d="M973.261 3321.06H1000.3L1005.34 3321.68V3348.1H1022.32V3373.89H1005.34L1005.97 3416.65L1009.11 3422.94L1014.77 3426.72L1022.32 3427.97V3456.28H1004.08L995.902 3453.76L989.613 3450.61L983.324 3444.95L979.55 3440.55L974.519 3430.49L973.261 3425.46V3373.89H957.538L956.909 3373.26V3348.73L957.538 3348.1H973.261V3321.06Z" fill="#025A90"/>
            <path id="Vector_39" d="M820.431 3348.1H827.349V3456.28H795.273V3372L797.789 3363.82L802.192 3357.53L807.852 3352.5L814.77 3349.36L820.431 3348.1Z" fill="#015990"/>
            <path id="Vector_40" d="M1060.05 3348.1H1066.97V3456.28H1034.9V3375.77L1036.15 3368.22L1040.56 3359.42L1046.22 3353.76L1051.25 3350.61L1056.91 3348.73L1060.05 3348.1Z" fill="#015990"/>
          </g>
        </g>
      </g>
    </g>
  </g>
  <defs>
    <filter id="filter0_f_1_155" x="-1394" y="968" width="5371" height="3394" filterUnits="userSpaceOnUse" color-interpolation-filters="sRGB">
      <feFlood flood-opacity="0" result="BackgroundImageFix"/>
      <feBlend mode="normal" in="SourceGraphic" in2="BackgroundImageFix" result="shape"/>
      <feGaussianBlur stdDeviation="500" result="effect1_foregroundBlur_1_155"/>
    </filter>
    <filter id="filter1_f_1_155" x="-830" y="2465.5" width="4243" height="1881" filterUnits="userSpaceOnUse" color-interpolation-filters="sRGB">
      <feFlood flood-opacity="0" result="BackgroundImageFix"/>
      <feBlend mode="normal" in="SourceGraphic" in2="BackgroundImageFix" result="shape"/>
      <feGaussianBlur stdDeviation="100" result="effect1_foregroundBlur_1_155"/>
    </filter>
    <linearGradient id="paint0_linear_1_155" x1="83.1608" y1="2237.98" x2="2433.17" y2="4126.81" gradientUnits="userSpaceOnUse">
      <stop stop-color="#005993" stop-opacity="0.3"/>
      <stop offset="1" stop-color="#005993" stop-opacity="0"/>
    </linearGradient>
    <linearGradient id="paint1_linear_1_155" x1="-46.49" y1="2406.24" x2="2462.04" y2="3993.15" gradientUnits="userSpaceOnUse">
      <stop stop-color="#005993" stop-opacity="0.4"/>
      <stop offset="1" stop-color="#005993" stop-opacity="0"/>
    </linearGradient>
    <linearGradient id="paint2_linear_1_155" x1="0.0711049" y1="2656.19" x2="2494.85" y2="3657.81" gradientUnits="userSpaceOnUse">
      <stop stop-color="#005993" stop-opacity="0.6"/>
      <stop offset="1" stop-color="#005993" stop-opacity="0"/>
    </linearGradient>
    <linearGradient id="paint3_linear_1_155" x1="2499.84" y1="2238.79" x2="149.831" y2="4127.62" gradientUnits="userSpaceOnUse">
      <stop stop-color="#005993" stop-opacity="0.3"/>
      <stop offset="1" stop-color="#005993" stop-opacity="0"/>
    </linearGradient>
    <linearGradient id="paint4_linear_1_155" x1="2629.49" y1="2407.06" x2="120.962" y2="3993.97" gradientUnits="userSpaceOnUse">
      <stop stop-color="#005993" stop-opacity="0.4"/>
      <stop offset="1" stop-color="#005993" stop-opacity="0"/>
    </linearGradient>
    <linearGradient id="paint5_linear_1_155" x1="2583.34" y1="2657.42" x2="88.569" y2="3659.04" gradientUnits="userSpaceOnUse">
      <stop stop-color="#005993" stop-opacity="0.6"/>
      <stop offset="1" stop-color="#005993" stop-opacity="0"/>
    </linearGradient>
    <clipPath id="clip0_1_155">
      <rect width="2583" height="3719" rx="280" fill="white"/>
    </clipPath>
    <clipPath id="clip1_1_155">
      <rect width="2583" height="3719" fill="white"/>
    </clipPath>
    <clipPath id="clip2_1_155">
      <rect width="2583" height="1662" fill="white" transform="translate(0 2057)"/>
    </clipPath>
    <clipPath id="clip3_1_155">
      <rect x="288" y="529.5" width="2008" height="2388" rx="100" fill="white"/>
    </clipPath>
  </defs>
</svg>